<?xml version="1.0" encoding="utf-8"?>
<!-- Generator: Adobe Illustrator 23.0.2, SVG Export Plug-In . SVG Version: 6.00 Build 0)  -->
<svg version="1.1" id="Capa_1" xmlns="http://www.w3.org/2000/svg" xmlns:xlink="http://www.w3.org/1999/xlink" x="0px" y="0px"
	 viewBox="0 0 327.3 412.9" style="enable-background:new 0 0 327.3 412.9;" xml:space="preserve">
<style type="text/css">
	.st0{fill-rule:evenodd;clip-rule:evenodd;fill:#DC533C;}
</style>
<g>
	<g>
		<path class="st0" d="M143,102.8c-11.1,0.3-22.2,0.2-33.2-1.9c-3.9-0.7-7.7-1.7-11.6-2.4C90.8,97,86.6,92.2,85.5,85
			c-0.9-6-2.8-11.3-7-15.9s-6.4-10.3-7.3-16.5c-0.6-4,1.2-5.2,4.9-4.6c4.6,0.6,7.2,3.8,9.7,7.1c2.7,3.6,5.1,7.4,8.5,10.4
			c2.4,2.1,5.1,3.5,8.4,2.7c2.3-0.5,4.5-0.8,3.2-4.5c-1.2-3.4,0.7-6,4.2-6.9c2.6-0.6,3.3-2,3.5-4.5c0.3-3.2,1.2-6.3,2.8-9.2
			c2.5-4.5,4.5-4.8,8-0.8c1.4,1.6,2.5,3.5,3.7,5.3c1,1.5,1.9,3.4,3.6,3.9c4.8,1.2,10.2,1.2,11.3,7.8c4.1-0.1,8.3,0.5,11.9-1.7
			c3-1.8,0.6-4.6,0.1-6.8c-0.4-1.9-1.9-3.4-3.5-4.7c-4.4-3.5-3.7-9.2,1.5-10.6c2.8-0.8,3.6-2.4,4.4-4.6c1.9-5.3,5.2-9.8,9.2-14
			c3.3,3.4,5.9,7.1,7.7,11.2c1.6,3.6,2.7,6.9,7.1,8.6c3.4,1.3,3.4,6.4,0.5,9.2c-1,1-2.5,1.5-3.5,2.4c-2.5,2.1-2.8,5-2.3,7.9
			c0.4,2.6,3,2.1,4.8,2.6c4.2,1,8.7,2.7,10.9-3.4c0.4-1.1,2.3-2.2,3.5-2.2c5.2,0.1,8.2-2.6,10.2-7c0.1-0.3,0.4-0.6,0.7-0.8
			c2.2-2.1,4.4-5.2,7.5-4.4c3.3,0.9,3.6,4.8,3.8,7.7c0.4,5.1,1.1,9.6,6.9,11.5c1.6,0.5,2.4,2.6,1.8,4.2c-1.9,4.9,1.4,4.5,4.3,4.6
			c6.3,0.2,10.3-3.7,13.8-8.2c2.6-3.2,4.8-6.8,8.4-9c2.2-1.3,4.8-2.6,7.1-0.9c2.3,1.7,0.7,4.2,0.2,6.5c-1.3,5.8-3.9,10.7-8.1,14.9
			c-3.6,3.6-5.8,7.9-6.4,13.3c-0.8,7.8-5.1,12.8-13.4,14.7c-12.1,2.8-24.2,3.4-36.4,3c-2.6-0.1-5.2,0-9,0
			c5.3,5.7,10.6,9.2,16.4,11.9c16.4,7.5,33.8,10.9,51.7,11.7c5.7,0.3,11.6,0.7,17.2-0.3c5.5-1,6.8,1.8,7.3,5.8
			c0.5,4.6,1.1,9.3,0.8,14c-2.7,58.4-21.8,110.4-58.1,156.5c-15.7,19.9-34.3,35.7-55.7,48.7c-2.8,1.7-4.8,1.9-7.8,0.2
			c-22.9-12.6-41.1-30.2-56.3-51.1c-26.4-36.4-44.4-76.4-50.4-121.2c-2.2-16.6-3.9-33.2-1.6-50c0.6-4.5,2.3-6.4,7.4-6
			c24.1,1.8,47.8,0.9,70.2-9.5c3.9-1.8,7.6-4,11.4-6.2C141.2,106.7,143.2,105.8,143,102.8z M61.5,155.9
			c0.1,50.5,16.9,95.3,46.5,135.7c13.8,18.7,29.9,34.9,49.8,47.3c3.2,2,5.6,2,8.8,0c18.9-11.9,35.5-26.4,49.6-43.7
			c27.3-33.6,43.8-72,50.4-114.6c2-12.9,3.5-26,1.7-39.2c-0.4-3.1-1.6-3.9-4.4-3.8c-5.9,0.1-11.8-0.4-17.8-1
			c-28.6-2.9-54.8-11.7-76.4-31.3c-3.2-2.9-5.1-2.5-8.2-0.1c-12.2,10-25.9,17.4-40.9,22.5c-17.6,5.9-35.7,8.3-54.1,7.7
			c-3.7-0.1-5.2,0.9-5,4.7C61.7,145.4,61.5,150.6,61.5,155.9z M97.4,93c0.8,0.6,1.2,1,1.6,1.2c15.1,4.6,30.6,6.1,46.3,5.3
			c2.8-0.1,5.1-1.3,7.1-3.3c4.1-4.1,7.5-8.7,10.8-13.4c2-2.8,3.7-3,5.6,0c2.3,3.5,4.9,6.7,7.1,10.2c2.7,4.4,6.5,6.4,11.5,6.6
			c8.1,0.3,16.2,0.6,24.2-0.2c6.2-0.7,12.6-0.5,18.6-2.5c1.2-0.4,2.7-0.7,3-2c0.3-1.5-1.2-2.1-2.3-2.6c-4.1-2.2-8.1-4.7-12.4-6.4
			c-32-13.1-64.6-13.5-97.5-4C112.7,84.2,104.5,87.1,97.4,93z"/>
		<path class="st0" d="M193.3,372.1c-5.9-2.1-11.8-1-18.7,0.1c6.2,4.3,9,9.9,10.6,16.3c0.7,2.7-0.2,3.2-2.6,2.8
			c-8.4-1.2-14.9-8.4-15.1-17c0-0.6,0.7-1.6-0.1-1.9c-3-0.9-6.1-0.5-9.1-0.3c-2.6,0.2-1.5,2.4-1.7,3.8c-1.1,7.1-8.5,14.3-15.6,15.3
			c-3.5,0.5-2.9-1.4-2.4-3.5c1.7-6.5,4.6-12,11.3-15.1c-16.5-1.8-32.5-3.8-47.7-10.1c-15.4-6.4-26.8-17.9-39-29.4
			c-2.1,3.4-4.1,6.8-8.7,5.4c-1.9-0.6-3.3-2.1-3.2-3.9c0.2-4.1,3.2-6.1,7.4-7.1c-1.8-2.9-3.3-5.6-5-8.1s-2.7-5.9-7.3-3.6
			c-2,1-5-0.4-7-2c-10-7.9-16.4-18.3-20.3-31.1c11,3.9,17.4,12.3,24.7,19.5c0.4,0.1,0.7,0.3,1.1,0.5c-0.1-0.4-0.2-0.8-0.3-1.2
			c-1.6-5.5-3.2-11-4.7-16.6c-0.7-2.5-1.6-3.9-4.4-2.2c-1.6,1-3.6,1.5-4.9-0.2c-1.4-1.7-2.1-3.9-1.1-6.1s3.1-3.6,5.2-3.1
			c6.4,1.5,4.4-2.7,3.2-5.1c-8.2-16.3,0.1-29.7,7-44.4c5.1,9.2,3.5,17.9,2.1,26.5c-0.9,5.4-3.7,10.1-5.6,15.1
			c-1.8,4.9-0.8,6.3,4.3,6.1c3-0.1,4.6,1.3,4.6,4c0,3-1.1,6.3-4.9,5.6c-4.5-0.8-3.8,1.6-3.3,4.1c1.6,7.7,4.1,15.2,8.4,23.6
			c1.7-14.3,5.2-26.6,16-37.3c0.7,14.8,1.8,28.4-8,39.3c-3.7,4.1-3.5,6.7-0.9,10.5c1.2,1.7,2.5,3.5,3.6,5.1c2.2-0.2,2.2-2,3.1-3
			c1.9-2.3,3.9-4.6,7.2-2.6c2.5,1.5,2.6,7.5-0.4,9.1c-5.1,2.6-2,4.4,0,6.4c20.5,21.6,45.3,33.1,75.6,31.5c1.3-0.1,3.2,0.8,3.8-1
			c0.5-1.6-1.3-2.4-2.3-3.3c-3.9-3.7-6.5-8.1-7.5-13.4c-0.7-3.6,0.7-4.3,3.8-3.1c6,2.2,9.8,6.4,12,12.3c0.6,1.7,1.3,3.4,1.7,5.1
			c0.6,2.3,2.4,3.1,4.4,3.3c2.2,0.2,2.3-1.8,2.8-3.3c1.5-4.3,3.2-8.4,6.1-12c0.8-1,1.6-1.9,2.6-2.7c2.6-1.9,6-4.4,8.6-2.4
			c2.3,1.8,0.1,5.4-1,8c-1.7,4.4-4.9,7.9-9,12.2c10.1,0.8,19.2,0.8,28.1-0.9c18.6-3.5,35-11.7,49.4-23.9c1.5-1.3,2.8-2.8,4.1-4.3
			c1.7-2,3.3-3.5-0.2-5.8c-3.3-2.2-3.3-7.6-0.5-9.4c3.7-2.4,5.8,0.7,7.2,3.3c1.5,2.8,2.7,2.4,4.2,0.3c1.6-2.2,2.9-4.6,4.4-6.8
			c1-1.5,0.7-2.6-0.6-3.7c-7.7-6.8-9.2-16-9.7-25.4c-0.3-5.1,0-10.3,0.6-15.5c10.6,8.8,12.9,21.3,16,34.6c3.8-8.1,7.3-15.4,8.2-23.7
			c0.2-1.7-0.1-3-2.3-2.2c-2.7,1-4.2-0.5-5-2.7c-0.7-2-1.1-4.4,0.4-6.2c1.8-2.1,3.9-1.2,5.8,0c2.9,1.7,3.1-0.3,3-2.3
			c-0.3-3.8-2.1-7.2-3.4-10.7c-4.3-11.4-4-23-0.5-34.6c6.8,13.5,14.3,26.7,7.1,42.5c-1.4,3.1-4,7.5,3.7,6.5c3.3-0.4,4.6,3,3.9,6.3
			c-0.6,3-2.3,4.4-5.5,3.1c-4-1.7-5.4,0.3-6.2,3.9c-1.2,5.3-2.9,10.6-4.7,17c7.7-9.1,14.9-16.6,26.4-20.4
			c-4.7,10.8-8.6,20.9-17.5,27.7c-3.5,2.7-7.5,7.3-12.9,2.5c-1.1-0.9-1.5,0.4-1.9,1c-1.7,2.3-3.1,4.9-4.8,7.1
			c-2.4,3.1-4,5.6,1.3,7.7c2.9,1.2,3.1,4.2,1.2,6.9c-1.9,2.7-4.1,2.1-6.6,0.8c-1.9-1-2.1-3.3-3.7-4.6c-11.7,11.1-24.3,21-39.1,27.6
			c-7.4,3.3-15.1,5.8-23.2,6.6c-1.3,0.1-3.1-0.2-2.9,2.1C195.5,372.1,194.4,372.1,193.3,372.1z"/>
		<path class="st0" d="M138.4,365.9c-6.1-0.8-11.5-3.9-16.4-8.1c-6.8-5.9-11.6-13.2-15.2-21.3c-0.7-1.7-1.9-3.5,1.7-3.2
			c13.1,1.4,30,16.4,32.7,29.1C141.9,365.7,141.6,366.1,138.4,365.9z"/>
		<path class="st0" d="M185,366.3c-3.6,0.1-2.4-2.2-1.8-4c3.6-10.9,11.3-18.2,21.3-23.1c3.5-1.7,7.3-3,11-4.4c2-0.8,3.1-0.4,2.7,2.1
			C216.5,348.5,197,365.9,185,366.3z"/>
		<path class="st0" d="M44.6,347.3c10.7,1.6,20.1-0.1,29.1,2.6c3.8,1.1,7.4,2.9,10.3,5.6c1.3,1.2,3.6,2.3,2.6,4.8
			c-0.9,2.4-2.8,3.7-5.3,4c-6.8,0.8-13.3-0.4-19.5-3.1C55.5,358.4,49.9,354.3,44.6,347.3z"/>
		<path class="st0" d="M280.1,350.7c-11.3,10.8-22.6,18-37.9,15.1c-2-0.4-3.9-0.8-4.4-3.2c-0.4-2.4,0.7-4.1,2.6-5.5
			c5.4-4,11.6-5.8,18.1-6.2C265.1,350.4,271.9,350.7,280.1,350.7z"/>
		<path class="st0" d="M80.9,310.4c7,6.2,12.4,11.9,16.2,18.9c2.7,5,3.9,10.4,3.2,16.1c-0.2,1.9-0.1,4.2-2.4,5c-2.4,0.8-4.7,0-6.3-2
			c-1.9-2.4-3.9-4.8-5.1-7.5C82.3,331.6,81.4,321.7,80.9,310.4z"/>
		<path class="st0" d="M244.3,312.3c-1.2,10.1-1.1,18.5-4.1,26.5c-1.9,5-4.7,9.2-9.2,12.2c-3.6,2.5-5.5,1.2-6.6-2.6
			c-1.5-5.3-0.1-10.3,2.1-15.1C230.3,325.2,236.8,319.3,244.3,312.3z"/>
		<path class="st0" d="M95.5,386c12.2-8.4,22.8-16.7,37.6-13.7c1.8,0.4,4.4,0.3,5.1,2.4c0.7,2.1-1.3,3.5-2.6,5
			c-1.7,1.9-3.8,3.3-6.2,4.2C118.8,387.8,108,388.1,95.5,386z"/>
		<path class="st0" d="M193.3,372.1c1.1,0,2.2,0,3.4,0c4.7-0.4,8.8,1.6,12.7,3.8c6.1,3.4,12.1,6.9,18,11.1
			c-5.8,1.8-11.8,1.5-17.6,1.1c-7.9-0.6-15.7-2.1-21.5-8.4c-1.3-1.4-3.6-2.8-3.1-4.8c0.6-2.3,3.3-2.4,5.4-2.8
			C191.5,372,192.4,372.1,193.3,372.1z"/>
		<path class="st0" d="M100.1,367.5c-0.7,2.5-2.1,4.4-4.7,4.5c-2.8,0.1-4.9-1.8-5.1-4.4s1.5-5,4.3-5.1
			C97.7,362.4,99,365.1,100.1,367.5z"/>
		<path class="st0" d="M229.5,373.3c-2.8-0.2-4.9-0.9-4.8-4c0.1-2.8,1.5-4.8,4.5-4.9c2.8-0.1,4.5,1.6,4.6,4.1
			C233.9,371.3,232.3,373.2,229.5,373.3z"/>
		<path class="st0" d="M109.7,354c-0.8,1.9-0.4,4.9-3.5,4.6c-2.6-0.3-4.8-1.9-4.7-5c0.1-2.1,1.2-4,3.6-3.9
			C107.7,349.7,109.5,351.2,109.7,354z"/>
		<path class="st0" d="M222.6,355c-0.1,2.8-1.8,4.6-4.3,4.6s-3.6-2.3-3.4-4.6c0.2-2.7,2.1-4.3,4.7-4.3
			C222.1,350.7,222.7,352.8,222.6,355z"/>
		<path class="st0" d="M44.7,301.4c0.1,0.4,0.2,0.8,0.3,1.2c-0.4-0.2-0.7-0.3-1.1-0.5C44.2,301.9,44.4,301.7,44.7,301.4z"/>
		<path class="st0" d="M118.3,152.9c4.9,0.5,10.5,1,15.8,2.7c3.7,1.2,5.4,0.1,6.9-3.5c5.3-12.4,11.3-24.5,19.7-35.2
			c4.3-5.6,5.4-5.6,9.4,0.1c7.7,11,13.6,22.9,18.6,35.2c1.6,4.1,3.5,4.7,7.5,3.8c9.7-2.2,19.4-3.1,29.2,0.5
			c20,7.4,30.1,26.3,24.5,47.2c-4.2,15.8-12.8,29.4-23.8,41.1c-11.4,12.2-23.5,23.9-39.2,30.8c-2.8,1.3-1.8,2.6-0.7,4
			c3.3,4.6,8.1,7.6,12.8,10.5c3,1.9,6.2,3.6,7.4,7.4c1.4,4.7,0.3,7-4.4,8.6c-4.5,1.6-8.9,0-13.4,0c-18.9,0-37.8-0.2-56.7-0.3
			c-1.1,0-2.2,0.1-3.2-0.1c-3.5-0.4-7.9,0.3-9.4-3.7c-1.7-4.3,1.7-7.4,4.3-10.3c1.6-1.8,3.6-3,5.8-3.8c2.8-1,5-2.8,7.1-4.7
			c5.7-5.4,5.1-6.4-1.2-10.6c-27-17.6-49.3-39.3-56.6-72.2C72,170.5,94.6,153.9,118.3,152.9z M181,200.6
			c-9.8,21.4-10.9,41.8-4.1,62.8c1,3.1,2.9,3.3,5.4,2.7c5.5-1.4,10.4-4.2,14.4-8.1c10.7-10.5,20.1-22.1,27.7-35
			c4.7-8,7.5-16.7,6.8-26.2c-0.8-12.6-9.6-21.5-22.1-22.2c-7.5-0.4-12,4.8-10.2,11.8c2.9,11.2,4.9,22.5,5.8,33.9
			c0.7,8,1.2,16.2-1.4,24.1c-0.4,1.3-0.8,3-2.6,3.1c-1.5,0.1-1.9-1.4-2.6-2.4c-3-4.5-5.2-9.4-7.3-14.4
			C187.1,221.4,184.7,211.6,181,200.6z M147.5,201.5c-0.8,2.2-1.4,3.7-1.9,5.1c-4.7,12.2-8.5,24.9-15.1,36.3c-0.9,1.6-1.4,4.3-3.8,4
			c-2.8-0.3-2.4-3.2-2.9-5.2c-2.2-8.7-1.8-17.5-0.1-26.2c2-10.6,4.4-21.1,6.8-31.6c0.9-4,0-6.6-4.1-8.6c-6.4-3-12.2-2.6-17.9,1.2
			c-10.3,6.7-14.2,19.5-9.8,33.1c5,15.5,15.2,28,25.1,40.6c5.2,6.6,11.6,11.7,19.4,15.1c3.6,1.5,5.5,1,7-2.8
			c2.9-7.7,4.6-15.5,4.7-23.7C155.1,226.1,153.2,213.9,147.5,201.5z M165.3,132.9c-3.8,8.3-5.9,16.1-8.1,23.8
			c-1.4,5-2.2,8.9,2.3,13.4c5.8,5.9,5.3,6.6,10.4-0.4c1.6-2.2,4.9-3.6,3.9-7.2C171.2,153,169.7,143.2,165.3,132.9z"/>
	</g>
</g>
<image style="overflow:visible;" width="235" height="200" xlink:href="CCB7A33.jpg"  transform="matrix(1 0 0 1 -291.0175 -4.11)">
</image>
</svg>
