<?xml version="1.0" encoding="utf-8"?>
<!-- Generator: Adobe Illustrator 23.0.2, SVG Export Plug-In . SVG Version: 6.00 Build 0)  -->
<svg version="1.1" id="Capa_1" xmlns="http://www.w3.org/2000/svg" xmlns:xlink="http://www.w3.org/1999/xlink" x="0px" y="0px"
	 viewBox="0 0 1173.8 1236.2" style="enable-background:new 0 0 1173.8 1236.2;" xml:space="preserve">
<style type="text/css">
	.st0{fill:#033AA3;}
	.st1{fill:#80CF4D;}
	.st2{fill:#FCFAFA;stroke:#000000;stroke-miterlimit:10;}
</style>
<g>
	<g>
		<circle class="st0" cx="588.4" cy="586.6" r="585.1"/>
		<path class="st1" d="M1061.8,918.9L1015,872v-84l-86.3-160.3l12.3-86l-71.7-34.9l-78.9,14.9l-143.1-62l-14.9-133.4l51.7-59.1h126
			l37.1,59.1l120.9,17.1l138.3-39.4c0,0,67.4,160.9,67.4,281.7C1173.6,586,1158.1,832.6,1061.8,918.9z"/>
		<path class="st1" d="M844.7,60l-66.6,42h-86.3l-39.4,74l54.3,22.3l78.9-19.7l172.9,44.6l49.4-42C1007.6,180.9,894.1,67.5,844.7,60
			z"/>
		<polygon class="st1" points="264.4,489.5 309,570.9 449.6,570.9 506.4,669.8 588.1,669.8 568.1,768.3 489.3,847.5 489.3,911.5 
			407.8,968.3 402.7,1064.6 343.6,1044.9 301.6,948.6 306.4,746.3 205.3,726.3 165.8,644.9 165.8,586 		"/>
		<path class="st1" d="M377,44.6l48,29.7l118.6,22.3l-14.9,64.3l-68.6,19.7l-54.9,101.1l-98.9,61.7l-140.6,17.1l-10,64.3l44.6,37.1
			l8,79.7L82.1,459.5L47.3,358.3c0,0,108.6-214.9,212.3-256.9C259.6,101.5,306.7,57.2,377,44.6z"/>
	</g>
	<g>
		<path d="M508.5,1167.8c-114.2-15.6-226.6-67.3-312.2-143.7C89.5,928.8,20.2,795.1,3.7,652.9c-5.6-49-2.1-137.5,7.4-182.1
			C45.8,306.2,141.2,170.7,284.3,82.5c110.9-68.2,257.6-97.4,391-77.3c185.3,28,349.1,145.5,434.9,312.5
			c71.7,139.6,84.7,303.6,35.4,451.7c-70.8,213.6-258.2,369.4-479.5,398.3C625.4,1173.1,547.8,1173.1,508.5,1167.8z M649.5,1139.4
			c239-26,439.1-209.2,484.5-443.8c18.9-98.6,13-193-18-286.2C1056.4,229.8,906.8,91.7,722.4,45.3C621.5,20.3,505,25,407.9,58.3
			c-93.8,32.5-167.3,81.7-238.1,159c-23.3,25.7-24.2,27.4-22.7,38.1c2.4,17.4,15.6,47.8,31,71.4c57.2,87.3,167.9,152,311.9,181.2
			c113,23.3,261.1,17.1,350.2-14.5c22.1-8,57.8-25.4,57.8-28.3c0-0.6-42.5-22.1-94.4-47.5c-51.9-25.4-93.8-46.6-93.2-47.2
			c0.6-0.6,24.8,1.5,53.7,4.7c29.2,3.5,111.2,12.7,182.4,20.9c71.4,8.3,130.1,15.3,130.7,15.9c0.6,0.6-15.6,49.3-36,108.3
			c-20.7,59-46.9,135.1-58.4,168.8c-18.6,54-21.5,60.2-23,51.6c-1.2-5.3-6.5-44.6-11.8-87c-5.6-42.8-10.9-77.6-12.1-77.6
			s-11.2,6.8-22.1,15.3c-31.3,23.9-158.2,105.6-163.8,105.6c-0.9,0-15.9,8-33.6,18c-146.6,82-350.2,160.5-527,203.6
			c-22.4,5.6-40.7,10.6-40.7,11.5c0,0.9,13.3,15.9,29.5,33c53.1,56.4,98.6,90,166.7,123.3c58.7,28.9,115.1,45.7,176.4,52.8
			C552.5,1143,616.8,1143.3,649.5,1139.4L649.5,1139.4z M225.2,884.5C439.2,826.1,641,739.3,811.8,632.2
			c38.4-24.2,95.3-64.6,122.7-87.9l21.5-17.7l6.8,55.2c3.5,30.1,7.7,56.4,8.6,58.4c0.9,1.8,18-44,38.1-101.5
			c19.8-57.8,35.7-105.6,35.1-105.9c-1.2-1.2-200.9-24.5-201.8-23.6c-0.3,0.3,21.8,11.8,49.3,25.4c27.7,13.9,50.2,25.7,50.2,26.9
			c0,4.4-36.9,28.6-63.7,41.3c-61.4,29.8-132.8,42.2-241.7,42.2c-98.8-0.3-150.2-8-234.6-35.4C276,468.2,185.1,398.8,142,310.9
			c-17.4-35.1-13.3-35.7-39.8,7.1c-31.3,50.2-53.7,105.3-66.4,164.6c-5.3,24.8-6.5,40.1-6.5,86.2c-0.3,60.5,2.1,79.1,16.2,134
			c15.3,58.7,43.1,121.3,77.3,174.1l18,27.4l11.8-1.5C159.4,901.6,191.9,893.7,225.2,884.5L225.2,884.5z"/>
	</g>
	<path class="st2" d="M123.9,285.2c0,0,151.6,363.6,730.1,228.3c0,0,84-37.9,88.2-52l-99.4-52.2l201.8,23.6l-73.2,207.4l-15.3-113.6
		c0,0-316.8,274.8-815.3,377.7C140.9,904.3-97.3,597.7,123.9,285.2z"/>
</g>
</svg>
